<?xml version="1.0" encoding="UTF-8"?>
<svg width="652px" height="235px" viewBox="0 0 652 235" version="1.1" xmlns="http://www.w3.org/2000/svg" xmlns:xlink="http://www.w3.org/1999/xlink">
    <!-- Generator: Sketch 52.6 (67491) - http://www.bohemiancoding.com/sketch -->
    <title>Logo black</title>
    <desc>Created with Sketch.</desc>
    <g id="Page-1" stroke="none" stroke-width="1" fill="none" fill-rule="evenodd">
        <g id="Logo-black" fill="#FFFFFF">
            <path d="M105,222.179 C132.848,222.179 159.555,211.116 179.246,191.425 C198.938,171.734 210,145.026 210,117.179 C210,89.331 198.938,62.6238 179.246,42.9325 C159.555,23.2412 132.848,12.1787 105,12.1787 L105,117.179 L105,222.179 Z" id="Path"></path>
            <polygon id="Path" points="0 24.2473 0 222.179 70 222.179 70 12.1787 68.4442 12.1787"></polygon>
            <rect id="Rectangle" x="344" y="12" width="70" height="210"></rect>
            <rect id="Rectangle" x="449" y="12" width="70" height="210"></rect>
            <path d="M577.83,13 L540.977,222 L612.057,222 L648.909,13 L577.83,13 Z M651,1.14379 L651.174,0.155365 L651,0.124634 L651,1.14379 Z M539,233.213 L539,234.233 L538.826,234.202 L539,233.213 Z" id="Shape"></path>
            <path d="M249.117,221.875 L212.089,11.8753 L283.168,11.8753 L320.197,221.875 L249.117,221.875 Z M322.174,234.108 L322.349,234.077 L322.174,233.089 L322.174,234.108 Z M210,0.030734 L210.174,0 L210.174,1.01924 L210,0.030734 Z" id="Shape"></path>
        </g>
    </g>
</svg>