<svg width="652" height="235" viewBox="0 0 652 235" fill="none" xmlns="http://www.w3.org/2000/svg">
<path d="M105 222.179C132.848 222.179 159.555 211.116 179.246 191.425C198.938 171.734 210 145.026 210 117.179C210 89.331 198.938 62.6238 179.246 42.9325C159.555 23.2412 132.848 12.1787 105 12.1787L105 117.179L105 222.179Z" fill="black"/>
<path fill-rule="evenodd" clip-rule="evenodd" d="M0 24.2473V222.179H70V12.1787H68.4442L0 24.2473Z" fill="black"/>
<rect x="344" y="12" width="70" height="210" fill="black"/>
<rect x="449" y="12" width="70" height="210" fill="black"/>
<path fill-rule="evenodd" clip-rule="evenodd" d="M577.83 13L540.977 222H612.057L648.909 13H577.83ZM651 1.14379L651.174 0.155365L651 0.124634V1.14379ZM539 233.213V234.233L538.826 234.202L539 233.213Z" fill="black"/>
<path fill-rule="evenodd" clip-rule="evenodd" d="M249.117 221.875L212.089 11.8753H283.168L320.197 221.875H249.117ZM322.174 234.108L322.349 234.077L322.174 233.089V234.108ZM210 0.030734L210.174 0V1.01924L210 0.030734Z" fill="black"/>
</svg>
